<?xml version="1.0" encoding="UTF-8" standalone="no"?>
<!DOCTYPE svg PUBLIC "-//W3C//DTD SVG 1.1//EN"
 "http://www.w3.org/Graphics/SVG/1.1/DTD/svg11.dtd">
<!-- Generated by graphviz version 11.0.0 (20240428.1522)
 -->
<!-- Title: Tree Pages: 1 -->
<svg width="1117pt" height="484pt"
 viewBox="0.00 0.00 1117.00 484.00" xmlns="http://www.w3.org/2000/svg" xmlns:xlink="http://www.w3.org/1999/xlink">
<g id="graph0" class="graph" transform="scale(1 1) rotate(0) translate(4 480)">
<title>Tree</title>
<polygon fill="white" stroke="none" points="-4,4 -4,-480 1113,-480 1113,4 -4,4"/>
<!-- 0 -->
<g id="node1" class="node">
<title>0</title>
<polygon fill="none" stroke="black" points="592.62,-476 463.38,-476 463.38,-402 592.62,-402 592.62,-476"/>
<text text-anchor="middle" x="528" y="-458.7" font-family="Helvetica,sans-Serif" font-size="14.00">Sex &lt;= 0.5</text>
<text text-anchor="middle" x="528" y="-442.2" font-family="Helvetica,sans-Serif" font-size="14.00">gini = 0.469</text>
<text text-anchor="middle" x="528" y="-425.7" font-family="Helvetica,sans-Serif" font-size="14.00">samples = 712</text>
<text text-anchor="middle" x="528" y="-409.2" font-family="Helvetica,sans-Serif" font-size="14.00">value = [444, 268]</text>
</g>
<!-- 1 -->
<g id="node2" class="node">
<title>1</title>
<polygon fill="none" stroke="black" points="513.5,-366 392.5,-366 392.5,-292 513.5,-292 513.5,-366"/>
<text text-anchor="middle" x="453" y="-348.7" font-family="Helvetica,sans-Serif" font-size="14.00">Pclass &lt;= 2.5</text>
<text text-anchor="middle" x="453" y="-332.2" font-family="Helvetica,sans-Serif" font-size="14.00">gini = 0.386</text>
<text text-anchor="middle" x="453" y="-315.7" font-family="Helvetica,sans-Serif" font-size="14.00">samples = 245</text>
<text text-anchor="middle" x="453" y="-299.2" font-family="Helvetica,sans-Serif" font-size="14.00">value = [64, 181]</text>
</g>
<!-- 0&#45;&gt;1 -->
<g id="edge1" class="edge">
<title>0&#45;&gt;1</title>
<path fill="none" stroke="black" d="M502.82,-401.74C497,-393.37 490.75,-384.36 484.7,-375.64"/>
<polygon fill="black" stroke="black" points="487.69,-373.81 479.11,-367.59 481.94,-377.8 487.69,-373.81"/>
<text text-anchor="middle" x="473.81" y="-385.9" font-family="Helvetica,sans-Serif" font-size="14.00">True</text>
</g>
<!-- 104 -->
<g id="node17" class="node">
<title>104</title>
<polygon fill="none" stroke="black" points="713.5,-366 592.5,-366 592.5,-292 713.5,-292 713.5,-366"/>
<text text-anchor="middle" x="653" y="-348.7" font-family="Helvetica,sans-Serif" font-size="14.00">Age &lt;= 6.5</text>
<text text-anchor="middle" x="653" y="-332.2" font-family="Helvetica,sans-Serif" font-size="14.00">gini = 0.303</text>
<text text-anchor="middle" x="653" y="-315.7" font-family="Helvetica,sans-Serif" font-size="14.00">samples = 467</text>
<text text-anchor="middle" x="653" y="-299.2" font-family="Helvetica,sans-Serif" font-size="14.00">value = [380, 87]</text>
</g>
<!-- 0&#45;&gt;104 -->
<g id="edge16" class="edge">
<title>0&#45;&gt;104</title>
<path fill="none" stroke="black" d="M569.97,-401.74C580.38,-392.74 591.64,-383.01 602.42,-373.7"/>
<polygon fill="black" stroke="black" points="604.5,-376.53 609.78,-367.34 599.93,-371.23 604.5,-376.53"/>
<text text-anchor="middle" x="609.11" y="-386.23" font-family="Helvetica,sans-Serif" font-size="14.00">False</text>
</g>
<!-- 2 -->
<g id="node3" class="node">
<title>2</title>
<polygon fill="none" stroke="black" points="278.38,-256 165.62,-256 165.62,-182 278.38,-182 278.38,-256"/>
<text text-anchor="middle" x="222" y="-238.7" font-family="Helvetica,sans-Serif" font-size="14.00">Age &lt;= 2.5</text>
<text text-anchor="middle" x="222" y="-222.2" font-family="Helvetica,sans-Serif" font-size="14.00">gini = 0.074</text>
<text text-anchor="middle" x="222" y="-205.7" font-family="Helvetica,sans-Serif" font-size="14.00">samples = 130</text>
<text text-anchor="middle" x="222" y="-189.2" font-family="Helvetica,sans-Serif" font-size="14.00">value = [5, 125]</text>
</g>
<!-- 1&#45;&gt;2 -->
<g id="edge2" class="edge">
<title>1&#45;&gt;2</title>
<path fill="none" stroke="black" d="M392.01,-299.48C360.28,-284.65 321.44,-266.49 288.9,-251.28"/>
<polygon fill="black" stroke="black" points="290.49,-248.16 279.94,-247.09 287.52,-254.5 290.49,-248.16"/>
</g>
<!-- 27 -->
<g id="node10" class="node">
<title>27</title>
<polygon fill="none" stroke="black" points="521.38,-256 384.62,-256 384.62,-182 521.38,-182 521.38,-256"/>
<text text-anchor="middle" x="453" y="-238.7" font-family="Helvetica,sans-Serif" font-size="14.00">Fare &lt;= 23.35</text>
<text text-anchor="middle" x="453" y="-222.2" font-family="Helvetica,sans-Serif" font-size="14.00">gini = 0.5</text>
<text text-anchor="middle" x="453" y="-205.7" font-family="Helvetica,sans-Serif" font-size="14.00">samples = 115</text>
<text text-anchor="middle" x="453" y="-189.2" font-family="Helvetica,sans-Serif" font-size="14.00">value = [59.0, 56.0]</text>
</g>
<!-- 1&#45;&gt;27 -->
<g id="edge9" class="edge">
<title>1&#45;&gt;27</title>
<path fill="none" stroke="black" d="M453,-291.74C453,-283.99 453,-275.7 453,-267.6"/>
<polygon fill="black" stroke="black" points="456.5,-267.86 453,-257.86 449.5,-267.86 456.5,-267.86"/>
</g>
<!-- 3 -->
<g id="node4" class="node">
<title>3</title>
<polygon fill="none" stroke="black" points="147.5,-146 44.5,-146 44.5,-72 147.5,-72 147.5,-146"/>
<text text-anchor="middle" x="96" y="-128.7" font-family="Helvetica,sans-Serif" font-size="14.00">Pclass &lt;= 1.5</text>
<text text-anchor="middle" x="96" y="-112.2" font-family="Helvetica,sans-Serif" font-size="14.00">gini = 0.5</text>
<text text-anchor="middle" x="96" y="-95.7" font-family="Helvetica,sans-Serif" font-size="14.00">samples = 2</text>
<text text-anchor="middle" x="96" y="-79.2" font-family="Helvetica,sans-Serif" font-size="14.00">value = [1, 1]</text>
</g>
<!-- 2&#45;&gt;3 -->
<g id="edge3" class="edge">
<title>2&#45;&gt;3</title>
<path fill="none" stroke="black" d="M179.69,-181.74C169.2,-172.74 157.85,-163.01 146.99,-153.7"/>
<polygon fill="black" stroke="black" points="149.43,-151.19 139.56,-147.34 144.87,-156.5 149.43,-151.19"/>
</g>
<!-- 6 -->
<g id="node7" class="node">
<title>6</title>
<polygon fill="none" stroke="black" points="278.38,-146 165.62,-146 165.62,-72 278.38,-72 278.38,-146"/>
<text text-anchor="middle" x="222" y="-128.7" font-family="Helvetica,sans-Serif" font-size="14.00">Age &lt;= 27.5</text>
<text text-anchor="middle" x="222" y="-112.2" font-family="Helvetica,sans-Serif" font-size="14.00">gini = 0.061</text>
<text text-anchor="middle" x="222" y="-95.7" font-family="Helvetica,sans-Serif" font-size="14.00">samples = 128</text>
<text text-anchor="middle" x="222" y="-79.2" font-family="Helvetica,sans-Serif" font-size="14.00">value = [4, 124]</text>
</g>
<!-- 2&#45;&gt;6 -->
<g id="edge6" class="edge">
<title>2&#45;&gt;6</title>
<path fill="none" stroke="black" d="M222,-181.74C222,-173.99 222,-165.7 222,-157.6"/>
<polygon fill="black" stroke="black" points="225.5,-157.86 222,-147.86 218.5,-157.86 225.5,-157.86"/>
</g>
<!-- 4 -->
<g id="node5" class="node">
<title>4</title>
<polygon fill="none" stroke="black" points="54,-36 0,-36 0,0 54,0 54,-36"/>
<text text-anchor="middle" x="27" y="-12.95" font-family="Helvetica,sans-Serif" font-size="14.00">(...)</text>
</g>
<!-- 3&#45;&gt;4 -->
<g id="edge4" class="edge">
<title>3&#45;&gt;4</title>
<path fill="none" stroke="black" d="M67.74,-71.54C60.81,-62.61 53.54,-53.24 47.09,-44.92"/>
<polygon fill="black" stroke="black" points="50.04,-43.01 41.15,-37.25 44.51,-47.3 50.04,-43.01"/>
</g>
<!-- 5 -->
<g id="node6" class="node">
<title>5</title>
<polygon fill="none" stroke="black" points="126,-36 72,-36 72,0 126,0 126,-36"/>
<text text-anchor="middle" x="99" y="-12.95" font-family="Helvetica,sans-Serif" font-size="14.00">(...)</text>
</g>
<!-- 3&#45;&gt;5 -->
<g id="edge5" class="edge">
<title>3&#45;&gt;5</title>
<path fill="none" stroke="black" d="M97.23,-71.54C97.5,-63.48 97.78,-55.05 98.04,-47.36"/>
<polygon fill="black" stroke="black" points="101.54,-47.68 98.37,-37.57 94.54,-47.44 101.54,-47.68"/>
</g>
<!-- 7 -->
<g id="node8" class="node">
<title>7</title>
<polygon fill="none" stroke="black" points="216,-36 162,-36 162,0 216,0 216,-36"/>
<text text-anchor="middle" x="189" y="-12.95" font-family="Helvetica,sans-Serif" font-size="14.00">(...)</text>
</g>
<!-- 6&#45;&gt;7 -->
<g id="edge7" class="edge">
<title>6&#45;&gt;7</title>
<path fill="none" stroke="black" d="M208.48,-71.54C205.42,-63.29 202.22,-54.65 199.31,-46.82"/>
<polygon fill="black" stroke="black" points="202.61,-45.63 195.85,-37.47 196.04,-48.07 202.61,-45.63"/>
</g>
<!-- 20 -->
<g id="node9" class="node">
<title>20</title>
<polygon fill="none" stroke="black" points="288,-36 234,-36 234,0 288,0 288,-36"/>
<text text-anchor="middle" x="261" y="-12.95" font-family="Helvetica,sans-Serif" font-size="14.00">(...)</text>
</g>
<!-- 6&#45;&gt;20 -->
<g id="edge8" class="edge">
<title>6&#45;&gt;20</title>
<path fill="none" stroke="black" d="M237.98,-71.54C241.64,-63.19 245.47,-54.45 248.93,-46.54"/>
<polygon fill="black" stroke="black" points="252.11,-48.01 252.92,-37.44 245.7,-45.2 252.11,-48.01"/>
</g>
<!-- 28 -->
<g id="node11" class="node">
<title>28</title>
<polygon fill="none" stroke="black" points="421.75,-146 296.25,-146 296.25,-72 421.75,-72 421.75,-146"/>
<text text-anchor="middle" x="359" y="-128.7" font-family="Helvetica,sans-Serif" font-size="14.00">Embarked &lt;= 1.5</text>
<text text-anchor="middle" x="359" y="-112.2" font-family="Helvetica,sans-Serif" font-size="14.00">gini = 0.486</text>
<text text-anchor="middle" x="359" y="-95.7" font-family="Helvetica,sans-Serif" font-size="14.00">samples = 94</text>
<text text-anchor="middle" x="359" y="-79.2" font-family="Helvetica,sans-Serif" font-size="14.00">value = [39, 55]</text>
</g>
<!-- 27&#45;&gt;28 -->
<g id="edge10" class="edge">
<title>27&#45;&gt;28</title>
<path fill="none" stroke="black" d="M421.44,-181.74C413.92,-173.1 405.81,-163.78 398,-154.81"/>
<polygon fill="black" stroke="black" points="400.84,-152.74 391.63,-147.49 395.56,-157.33 400.84,-152.74"/>
</g>
<!-- 99 -->
<g id="node14" class="node">
<title>99</title>
<polygon fill="none" stroke="black" points="544.25,-146 439.75,-146 439.75,-72 544.25,-72 544.25,-146"/>
<text text-anchor="middle" x="492" y="-128.7" font-family="Helvetica,sans-Serif" font-size="14.00">Age &lt;= 5.5</text>
<text text-anchor="middle" x="492" y="-112.2" font-family="Helvetica,sans-Serif" font-size="14.00">gini = 0.091</text>
<text text-anchor="middle" x="492" y="-95.7" font-family="Helvetica,sans-Serif" font-size="14.00">samples = 21</text>
<text text-anchor="middle" x="492" y="-79.2" font-family="Helvetica,sans-Serif" font-size="14.00">value = [20, 1]</text>
</g>
<!-- 27&#45;&gt;99 -->
<g id="edge13" class="edge">
<title>27&#45;&gt;99</title>
<path fill="none" stroke="black" d="M466.09,-181.74C468.96,-173.81 472.03,-165.31 475.01,-157.04"/>
<polygon fill="black" stroke="black" points="478.25,-158.37 478.36,-147.77 471.67,-155.99 478.25,-158.37"/>
</g>
<!-- 29 -->
<g id="node12" class="node">
<title>29</title>
<polygon fill="none" stroke="black" points="369,-36 315,-36 315,0 369,0 369,-36"/>
<text text-anchor="middle" x="342" y="-12.95" font-family="Helvetica,sans-Serif" font-size="14.00">(...)</text>
</g>
<!-- 28&#45;&gt;29 -->
<g id="edge11" class="edge">
<title>28&#45;&gt;29</title>
<path fill="none" stroke="black" d="M352.04,-71.54C350.5,-63.48 348.89,-55.05 347.42,-47.36"/>
<polygon fill="black" stroke="black" points="350.86,-46.71 345.54,-37.54 343.98,-48.02 350.86,-46.71"/>
</g>
<!-- 56 -->
<g id="node13" class="node">
<title>56</title>
<polygon fill="none" stroke="black" points="441,-36 387,-36 387,0 441,0 441,-36"/>
<text text-anchor="middle" x="414" y="-12.95" font-family="Helvetica,sans-Serif" font-size="14.00">(...)</text>
</g>
<!-- 28&#45;&gt;56 -->
<g id="edge12" class="edge">
<title>28&#45;&gt;56</title>
<path fill="none" stroke="black" d="M381.53,-71.54C386.87,-62.9 392.47,-53.84 397.48,-45.73"/>
<polygon fill="black" stroke="black" points="400.39,-47.69 402.66,-37.34 394.43,-44.01 400.39,-47.69"/>
</g>
<!-- 100 -->
<g id="node15" class="node">
<title>100</title>
<polygon fill="none" stroke="black" points="517,-36 463,-36 463,0 517,0 517,-36"/>
<text text-anchor="middle" x="490" y="-12.95" font-family="Helvetica,sans-Serif" font-size="14.00">(...)</text>
</g>
<!-- 99&#45;&gt;100 -->
<g id="edge14" class="edge">
<title>99&#45;&gt;100</title>
<path fill="none" stroke="black" d="M491.18,-71.54C491,-63.48 490.81,-55.05 490.64,-47.36"/>
<polygon fill="black" stroke="black" points="494.14,-47.49 490.42,-37.57 487.14,-47.64 494.14,-47.49"/>
</g>
<!-- 103 -->
<g id="node16" class="node">
<title>103</title>
<polygon fill="none" stroke="black" points="589,-36 535,-36 535,0 589,0 589,-36"/>
<text text-anchor="middle" x="562" y="-12.95" font-family="Helvetica,sans-Serif" font-size="14.00">(...)</text>
</g>
<!-- 99&#45;&gt;103 -->
<g id="edge15" class="edge">
<title>99&#45;&gt;103</title>
<path fill="none" stroke="black" d="M520.67,-71.54C527.7,-62.61 535.07,-53.24 541.61,-44.92"/>
<polygon fill="black" stroke="black" points="544.22,-47.27 547.65,-37.24 538.72,-42.94 544.22,-47.27"/>
</g>
<!-- 105 -->
<g id="node18" class="node">
<title>105</title>
<polygon fill="none" stroke="black" points="717.25,-256 588.75,-256 588.75,-182 717.25,-182 717.25,-256"/>
<text text-anchor="middle" x="653" y="-238.7" font-family="Helvetica,sans-Serif" font-size="14.00">Family &lt;= 4.5</text>
<text text-anchor="middle" x="653" y="-222.2" font-family="Helvetica,sans-Serif" font-size="14.00">gini = 0.434</text>
<text text-anchor="middle" x="653" y="-205.7" font-family="Helvetica,sans-Serif" font-size="14.00">samples = 22</text>
<text text-anchor="middle" x="653" y="-189.2" font-family="Helvetica,sans-Serif" font-size="14.00">value = [7.0, 15.0]</text>
</g>
<!-- 104&#45;&gt;105 -->
<g id="edge17" class="edge">
<title>104&#45;&gt;105</title>
<path fill="none" stroke="black" d="M653,-291.74C653,-283.99 653,-275.7 653,-267.6"/>
<polygon fill="black" stroke="black" points="656.5,-267.86 653,-257.86 649.5,-267.86 656.5,-267.86"/>
</g>
<!-- 114 -->
<g id="node23" class="node">
<title>114</title>
<polygon fill="none" stroke="black" points="933.5,-256 812.5,-256 812.5,-182 933.5,-182 933.5,-256"/>
<text text-anchor="middle" x="873" y="-238.7" font-family="Helvetica,sans-Serif" font-size="14.00">Pclass &lt;= 1.5</text>
<text text-anchor="middle" x="873" y="-222.2" font-family="Helvetica,sans-Serif" font-size="14.00">gini = 0.271</text>
<text text-anchor="middle" x="873" y="-205.7" font-family="Helvetica,sans-Serif" font-size="14.00">samples = 445</text>
<text text-anchor="middle" x="873" y="-189.2" font-family="Helvetica,sans-Serif" font-size="14.00">value = [373, 72]</text>
</g>
<!-- 104&#45;&gt;114 -->
<g id="edge22" class="edge">
<title>104&#45;&gt;114</title>
<path fill="none" stroke="black" d="M713.99,-298.06C741.28,-284.66 773.64,-268.78 802.02,-254.85"/>
<polygon fill="black" stroke="black" points="803.48,-258.03 810.91,-250.48 800.39,-251.74 803.48,-258.03"/>
</g>
<!-- 106 -->
<g id="node19" class="node">
<title>106</title>
<polygon fill="none" stroke="black" points="667.25,-137.75 562.75,-137.75 562.75,-80.25 667.25,-80.25 667.25,-137.75"/>
<text text-anchor="middle" x="615" y="-120.45" font-family="Helvetica,sans-Serif" font-size="14.00">gini = 0.0</text>
<text text-anchor="middle" x="615" y="-103.95" font-family="Helvetica,sans-Serif" font-size="14.00">samples = 14</text>
<text text-anchor="middle" x="615" y="-87.45" font-family="Helvetica,sans-Serif" font-size="14.00">value = [0, 14]</text>
</g>
<!-- 105&#45;&gt;106 -->
<g id="edge18" class="edge">
<title>105&#45;&gt;106</title>
<path fill="none" stroke="black" d="M640.24,-181.74C636.53,-171.19 632.46,-159.62 628.69,-148.91"/>
<polygon fill="black" stroke="black" points="632.02,-147.84 625.4,-139.57 625.42,-150.16 632.02,-147.84"/>
</g>
<!-- 107 -->
<g id="node20" class="node">
<title>107</title>
<polygon fill="none" stroke="black" points="786.75,-146 685.25,-146 685.25,-72 786.75,-72 786.75,-146"/>
<text text-anchor="middle" x="736" y="-128.7" font-family="Helvetica,sans-Serif" font-size="14.00">Family &lt;= 6.5</text>
<text text-anchor="middle" x="736" y="-112.2" font-family="Helvetica,sans-Serif" font-size="14.00">gini = 0.219</text>
<text text-anchor="middle" x="736" y="-95.7" font-family="Helvetica,sans-Serif" font-size="14.00">samples = 8</text>
<text text-anchor="middle" x="736" y="-79.2" font-family="Helvetica,sans-Serif" font-size="14.00">value = [7, 1]</text>
</g>
<!-- 105&#45;&gt;107 -->
<g id="edge19" class="edge">
<title>105&#45;&gt;107</title>
<path fill="none" stroke="black" d="M680.87,-181.74C687.37,-173.28 694.37,-164.16 701.14,-155.37"/>
<polygon fill="black" stroke="black" points="703.82,-157.61 707.14,-147.55 698.27,-153.35 703.82,-157.61"/>
</g>
<!-- 108 -->
<g id="node21" class="node">
<title>108</title>
<polygon fill="none" stroke="black" points="723,-36 669,-36 669,0 723,0 723,-36"/>
<text text-anchor="middle" x="696" y="-12.95" font-family="Helvetica,sans-Serif" font-size="14.00">(...)</text>
</g>
<!-- 107&#45;&gt;108 -->
<g id="edge20" class="edge">
<title>107&#45;&gt;108</title>
<path fill="none" stroke="black" d="M719.62,-71.54C715.86,-63.19 711.93,-54.45 708.38,-46.54"/>
<polygon fill="black" stroke="black" points="711.58,-45.12 704.29,-37.44 705.19,-47.99 711.58,-45.12"/>
</g>
<!-- 109 -->
<g id="node22" class="node">
<title>109</title>
<polygon fill="none" stroke="black" points="795,-36 741,-36 741,0 795,0 795,-36"/>
<text text-anchor="middle" x="768" y="-12.95" font-family="Helvetica,sans-Serif" font-size="14.00">(...)</text>
</g>
<!-- 107&#45;&gt;109 -->
<g id="edge21" class="edge">
<title>107&#45;&gt;109</title>
<path fill="none" stroke="black" d="M749.11,-71.54C752.08,-63.29 755.18,-54.65 758,-46.82"/>
<polygon fill="black" stroke="black" points="761.27,-48.07 761.36,-37.48 754.68,-45.71 761.27,-48.07"/>
</g>
<!-- 115 -->
<g id="node24" class="node">
<title>115</title>
<polygon fill="none" stroke="black" points="941.38,-146 804.62,-146 804.62,-72 941.38,-72 941.38,-146"/>
<text text-anchor="middle" x="873" y="-128.7" font-family="Helvetica,sans-Serif" font-size="14.00">Fare &lt;= 387.665</text>
<text text-anchor="middle" x="873" y="-112.2" font-family="Helvetica,sans-Serif" font-size="14.00">gini = 0.442</text>
<text text-anchor="middle" x="873" y="-95.7" font-family="Helvetica,sans-Serif" font-size="14.00">samples = 91</text>
<text text-anchor="middle" x="873" y="-79.2" font-family="Helvetica,sans-Serif" font-size="14.00">value = [61.0, 30.0]</text>
</g>
<!-- 114&#45;&gt;115 -->
<g id="edge23" class="edge">
<title>114&#45;&gt;115</title>
<path fill="none" stroke="black" d="M873,-181.74C873,-173.99 873,-165.7 873,-157.6"/>
<polygon fill="black" stroke="black" points="876.5,-157.86 873,-147.86 869.5,-157.86 876.5,-157.86"/>
</g>
<!-- 180 -->
<g id="node27" class="node">
<title>180</title>
<polygon fill="none" stroke="black" points="1080.5,-146 959.5,-146 959.5,-72 1080.5,-72 1080.5,-146"/>
<text text-anchor="middle" x="1020" y="-128.7" font-family="Helvetica,sans-Serif" font-size="14.00">Fare &lt;= 51.698</text>
<text text-anchor="middle" x="1020" y="-112.2" font-family="Helvetica,sans-Serif" font-size="14.00">gini = 0.209</text>
<text text-anchor="middle" x="1020" y="-95.7" font-family="Helvetica,sans-Serif" font-size="14.00">samples = 354</text>
<text text-anchor="middle" x="1020" y="-79.2" font-family="Helvetica,sans-Serif" font-size="14.00">value = [312, 42]</text>
</g>
<!-- 114&#45;&gt;180 -->
<g id="edge26" class="edge">
<title>114&#45;&gt;180</title>
<path fill="none" stroke="black" d="M922.36,-181.74C934.84,-172.57 948.37,-162.63 961.27,-153.15"/>
<polygon fill="black" stroke="black" points="963.32,-155.99 969.3,-147.25 959.17,-150.35 963.32,-155.99"/>
</g>
<!-- 116 -->
<g id="node25" class="node">
<title>116</title>
<polygon fill="none" stroke="black" points="883,-36 829,-36 829,0 883,0 883,-36"/>
<text text-anchor="middle" x="856" y="-12.95" font-family="Helvetica,sans-Serif" font-size="14.00">(...)</text>
</g>
<!-- 115&#45;&gt;116 -->
<g id="edge24" class="edge">
<title>115&#45;&gt;116</title>
<path fill="none" stroke="black" d="M866.04,-71.54C864.5,-63.48 862.89,-55.05 861.42,-47.36"/>
<polygon fill="black" stroke="black" points="864.86,-46.71 859.54,-37.54 857.98,-48.02 864.86,-46.71"/>
</g>
<!-- 179 -->
<g id="node26" class="node">
<title>179</title>
<polygon fill="none" stroke="black" points="955,-36 901,-36 901,0 955,0 955,-36"/>
<text text-anchor="middle" x="928" y="-12.95" font-family="Helvetica,sans-Serif" font-size="14.00">(...)</text>
</g>
<!-- 115&#45;&gt;179 -->
<g id="edge25" class="edge">
<title>115&#45;&gt;179</title>
<path fill="none" stroke="black" d="M895.53,-71.54C900.87,-62.9 906.47,-53.84 911.48,-45.73"/>
<polygon fill="black" stroke="black" points="914.39,-47.69 916.66,-37.34 908.43,-44.01 914.39,-47.69"/>
</g>
<!-- 181 -->
<g id="node28" class="node">
<title>181</title>
<polygon fill="none" stroke="black" points="1037,-36 983,-36 983,0 1037,0 1037,-36"/>
<text text-anchor="middle" x="1010" y="-12.95" font-family="Helvetica,sans-Serif" font-size="14.00">(...)</text>
</g>
<!-- 180&#45;&gt;181 -->
<g id="edge27" class="edge">
<title>180&#45;&gt;181</title>
<path fill="none" stroke="black" d="M1015.9,-71.54C1015,-63.48 1014.05,-55.05 1013.19,-47.36"/>
<polygon fill="black" stroke="black" points="1016.68,-47.11 1012.09,-37.56 1009.72,-47.89 1016.68,-47.11"/>
</g>
<!-- 338 -->
<g id="node29" class="node">
<title>338</title>
<polygon fill="none" stroke="black" points="1109,-36 1055,-36 1055,0 1109,0 1109,-36"/>
<text text-anchor="middle" x="1082" y="-12.95" font-family="Helvetica,sans-Serif" font-size="14.00">(...)</text>
</g>
<!-- 180&#45;&gt;338 -->
<g id="edge28" class="edge">
<title>180&#45;&gt;338</title>
<path fill="none" stroke="black" d="M1045.4,-71.54C1051.48,-62.81 1057.87,-53.64 1063.57,-45.46"/>
<polygon fill="black" stroke="black" points="1066.41,-47.5 1069.25,-37.3 1060.67,-43.5 1066.41,-47.5"/>
</g>
</g>
</svg>
